<?xml version="1.0" encoding="utf-8"?>
<!-- Generator: Adobe Illustrator 27.0.0, SVG Export Plug-In . SVG Version: 6.00 Build 0)  -->
<svg version="1.1" id="Layer_2" xmlns="http://www.w3.org/2000/svg" xmlns:xlink="http://www.w3.org/1999/xlink" x="0px" y="0px"
	 viewBox="0 0 117.45 112.34" style="enable-background:new 0 0 117.45 112.34;" xml:space="preserve">
<g>
	<g>
		<path d="M46.77,71.74c-0.04,4.87-0.09,9.74-0.13,14.62c-0.01,1.29,1.99,1.29,2,0c0.04-4.87,0.09-9.74,0.13-14.62
			C48.79,70.46,46.79,70.46,46.77,71.74L46.77,71.74z"/>
	</g>
</g>
<g>
	<g>
		<path d="M53.54,86.35c-0.24-1.09-0.48-2.22-0.32-3.35c0.15-1.01,0.63-1.96,1.05-2.88c0.81-1.77,1.66-3.52,2.43-5.31
			c0.75-1.74,1.43-3.5,1.91-5.33c0.43-1.67,1.05-3.77,0.16-5.38c-0.63-1.12-2.36-0.12-1.73,1.01c0.48,0.85,0.03,2.19-0.18,3.09
			c-0.2,0.88-0.45,1.74-0.73,2.59c-0.63,1.88-1.44,3.7-2.27,5.5c-0.78,1.68-1.69,3.36-2.29,5.12c-0.61,1.81-0.36,3.63,0.04,5.46
			C51.88,88.14,53.81,87.61,53.54,86.35L53.54,86.35z"/>
	</g>
</g>
<g>
	<g>
		<path d="M57.05,86.88c5.99,0.79,12.06,1.16,18.1,0.97c4.94-0.16,10.41-1.08,13.72-5.15c1.58-1.94,2.27-4.33,2.54-6.79
			c0.25-2.2,0.62-5.09-0.18-7.21c-0.8-2.12-2.94-2.74-5-2.9c-2.07-0.17-4.88-0.14-5.81,2.15c-1.09,2.69,2.13,4.45,1.81,7.08
			c-0.38,3.05-3.79,4.12-6.13,2.39c-1.03-0.77-2.03,0.97-1.01,1.73c3.15,2.35,7.79,0.88,8.92-2.9c0.61-2.05-0.04-3.79-1.13-5.52
			c-0.73-1.16-1.04-2.46,0.63-2.89c1.05-0.27,2.44-0.13,3.51,0.05c1.06,0.18,2.07,0.58,2.41,1.7c0.35,1.16,0.18,2.56,0.15,3.76
			c-0.07,2.4-0.29,4.91-1.52,7.02c-2.54,4.36-8.07,5.29-12.67,5.46c-6.12,0.22-12.27-0.15-18.33-0.96
			C55.78,84.71,55.79,86.71,57.05,86.88L57.05,86.88z"/>
	</g>
</g>
<g>
	<g>
		<path d="M61.16,39.11c1.57,3.38-0.18,7.21,0.1,10.74c0.27,3.34,2.42,5.8,4,8.61c3.38,6.03,5.09,12.89,5.02,19.79
			c-0.01,1.29,1.99,1.29,2,0c0.06-6.96-1.6-13.89-4.88-20.04c-1.66-3.11-4.24-5.8-4.17-9.52c0.06-3.63,1.28-7.11-0.34-10.59
			C62.35,36.94,60.62,37.95,61.16,39.11L61.16,39.11z"/>
	</g>
</g>
<g>
	<g>
		<path d="M38.19,34.92c0.26-1.8,0.39-3.67,0.79-5.44c0.54-2.41,2.48-0.12,3.3,0.81c1.93,2.18,4.68,3.51,7.61,3.54
			c2.8,0.02,5.61-1.2,7.51-3.27c0.69-0.75,2.77-3.72,3.46-1.43c0.54,1.78,0.49,3.78,0.26,5.6c-0.16,1.27,1.84,1.26,2,0
			c0.32-2.55,0.51-9.5-3.86-8.35c-1.7,0.44-2.49,2.04-3.67,3.18c-1.41,1.36-3.35,2.2-5.31,2.26c-1.96,0.07-3.95-0.59-5.47-1.85
			c-1.32-1.09-2.15-2.84-3.86-3.39c-1.42-0.46-2.93,0-3.59,1.4c-0.39,0.83-0.42,1.83-0.55,2.72c-0.18,1.23-0.36,2.46-0.53,3.69
			C36.08,35.64,38.01,36.19,38.19,34.92L38.19,34.92z"/>
	</g>
</g>
<g>
	<g>
		<path d="M36.46,33.26c0.07,11.57,0.13,23.15,0.2,34.72c0.01,1.29,2.01,1.29,2,0c-0.07-11.57-0.13-23.15-0.2-34.72
			C38.45,31.97,36.45,31.97,36.46,33.26L36.46,33.26z"/>
	</g>
</g>
<g>
	<g>
		<path d="M36.57,67.2c2,6.23,4.01,12.58,3.83,19.2c-0.04,1.29,1.96,1.29,2,0c0.19-6.8-1.84-13.33-3.9-19.73
			C38.1,65.45,36.17,65.97,36.57,67.2L36.57,67.2z"/>
	</g>
</g>
<g>
	<g>
		<path d="M41.86,41.93c0.53,0.95,1.51,1.52,2.57,1.63c0.54,0.05,1.16-0.08,1.62-0.4c0.58-0.4,0.92-0.98,0.96-1.68
			c0.03-0.52-0.48-1.02-1-1c-0.57,0.03-0.96,0.44-1,1c0,0.03,0,0.06-0.01,0.1c0.01-0.09,0.02-0.18,0.04-0.27
			c-0.01,0.08-0.04,0.16-0.06,0.23c0.03-0.08,0.07-0.16,0.1-0.24c-0.03,0.06-0.06,0.11-0.09,0.17c-0.07,0.12,0.07-0.08,0.07-0.09
			c0,0.03-0.07,0.07-0.08,0.09c-0.03,0.03-0.12,0.1,0.01,0c0.13-0.1,0.03-0.03,0-0.01c-0.07,0.04-0.14,0.08-0.21,0.11
			c0.08-0.03,0.16-0.07,0.24-0.1c-0.12,0.05-0.24,0.08-0.36,0.1c0.09-0.01,0.18-0.02,0.27-0.04c-0.19,0.03-0.38,0.02-0.57,0
			c0.09,0.01,0.18,0.02,0.27,0.04c-0.18-0.03-0.35-0.07-0.51-0.14c0.08,0.03,0.16,0.07,0.24,0.1c-0.1-0.04-0.21-0.09-0.3-0.15
			c-0.05-0.03-0.11-0.08-0.16-0.11c0.14,0.11,0.17,0.13,0.09,0.07c-0.02-0.02-0.04-0.03-0.06-0.05c-0.09-0.08-0.16-0.16-0.24-0.24
			c-0.05-0.06-0.02-0.02,0.08,0.11c-0.02-0.03-0.04-0.05-0.06-0.08c-0.04-0.05-0.07-0.11-0.1-0.17c-0.25-0.46-0.92-0.65-1.37-0.36
			C41.75,40.87,41.58,41.44,41.86,41.93L41.86,41.93z"/>
	</g>
</g>
<g>
	<g>
		<path d="M52.3,41.91c0.31,0.54,0.66,1.03,1.17,1.39c0.46,0.33,1.08,0.5,1.65,0.49c1.24-0.03,2.32-0.89,2.67-2.07
			c0.15-0.5-0.18-1.11-0.7-1.23c-0.54-0.12-1.07,0.16-1.23,0.7c-0.01,0.04-0.03,0.08-0.04,0.13c-0.03,0.11,0.11-0.21,0.03-0.07
			c-0.04,0.08-0.09,0.16-0.14,0.23c-0.08,0.12,0.06-0.06,0.06-0.07c0,0.02-0.07,0.08-0.09,0.1c-0.03,0.03-0.06,0.06-0.1,0.09
			c-0.03,0.03-0.16,0.13-0.02,0.03c0.14-0.11-0.07,0.04-0.12,0.07c-0.01,0.01-0.13,0.08-0.14,0.07c0,0,0.23-0.08,0.09-0.04
			c-0.07,0.02-0.2,0.08-0.26,0.07c0.05,0.01,0.25-0.02,0.07-0.01c-0.05,0-0.09,0-0.14,0c-0.04,0-0.07,0-0.11,0
			c-0.2,0,0.18,0.04,0.07,0.01c-0.09-0.02-0.18-0.04-0.27-0.07c-0.03-0.01-0.1-0.02-0.13-0.05c0.04,0.04,0.21,0.1,0.06,0.02
			c-0.07-0.04-0.14-0.09-0.21-0.13c0.2,0.11,0.12,0.1,0.05,0.03c-0.04-0.03-0.07-0.07-0.11-0.1c-0.04-0.04-0.07-0.08-0.1-0.11
			c-0.08-0.09,0.14,0.2,0.03,0.03c-0.11-0.17-0.22-0.34-0.32-0.52c-0.26-0.45-0.92-0.65-1.37-0.36
			C52.2,40.83,52.02,41.42,52.3,41.91L52.3,41.91z"/>
	</g>
</g>
</svg>
